<svg width="14" height="14" viewBox="0 0 14 14" fill="none" xmlns="http://www.w3.org/2000/svg">
<path d="M0.837607 13.9402L0 13.1026L1.4359 11.6667C0 9.99145 0.119658 7.47863 1.67521 5.92308L2.69231 4.90598L9.09402 11.3077L8.13675 12.265C7.29914 13.1026 6.22222 13.5214 5.08547 13.5214C4.06838 13.5214 3.11111 13.1624 2.33333 12.5043L0.837607 13.9402ZM2.81197 11.3675C3.41026 11.9658 4.18803 12.265 5.02564 12.265C5.86325 12.265 6.64103 11.9658 7.23932 11.3675L7.35897 11.2479L2.69231 6.52137L2.51282 6.70085C1.31624 7.89744 1.31624 9.81196 2.51282 11.0085L2.81197 11.3675ZM11.3077 8.91453L9.81197 7.4188L8.4359 8.79487L7.59829 8.01709L8.97436 6.64103L7.29914 4.96581L5.92308 6.34188L5.08547 5.50427L6.46154 4.1282L4.96581 2.63248L5.92308 1.67521C6.76068 0.837607 7.83761 0.418803 8.97436 0.418803C9.99145 0.418803 10.9487 0.777778 11.7265 1.4359L13.1624 0L14 0.837607L12.5641 2.2735C14 3.94872 13.8803 6.46154 12.3248 8.01709L11.3077 8.91453ZM6.64103 2.51282L11.3077 7.23932L11.4872 7.05983C12.6838 5.86325 12.6838 3.94872 11.4872 2.75214L11.188 2.39316C10.5897 1.79487 9.81196 1.49573 8.97436 1.49573C8.13675 1.49573 7.35897 1.79487 6.76068 2.39316L6.64103 2.51282Z" fill="#606060"/>
</svg>
